<svg xmlns="http://www.w3.org/2000/svg" width="159.182" height="156.482" viewBox="0 0 159.182 156.482">
  <g id="Component_27_1" data-name="Component 27 – 1" transform="translate(0.5 0.5)">
    <g id="Group_129213" data-name="Group 129213" transform="translate(-1102.002 -3943.355)">
      <g id="Group_129211" data-name="Group 129211" transform="translate(1102 3943.355)">
        <g id="Group_129215" data-name="Group 129215">
          <path id="Union_22" data-name="Union 22" d="M-9288.937,17556.98l-2.6-10-3.815,9.615-1.728-.105,4.424-11.268,2.4.146,3.045,11.715Zm7.12-.7a4.864,4.864,0,0,1-2.075-1.9,7.331,7.331,0,0,1-.97-3.049,7.341,7.341,0,0,1,.3-3.186,4.864,4.864,0,0,1,1.621-2.291,5.479,5.479,0,0,1,2.842-1.062,5.464,5.464,0,0,1,3.006.438,4.924,4.924,0,0,1,2.075,1.9,7.17,7.17,0,0,1,.969,3.045,7.208,7.208,0,0,1-.3,3.186,4.909,4.909,0,0,1-1.621,2.291,5.454,5.454,0,0,1-2.847,1.063,7.368,7.368,0,0,1-.764.043A5.1,5.1,0,0,1-9281.816,17556.281Zm1.895-9.9a3.415,3.415,0,0,0-1.965.754,3.334,3.334,0,0,0-1.049,1.67,6.117,6.117,0,0,0-.158,2.344,5.933,5.933,0,0,0,.651,2.252,3.36,3.36,0,0,0,1.375,1.4,3.6,3.6,0,0,0,2.08.334,3.476,3.476,0,0,0,1.97-.744,3.362,3.362,0,0,0,1.044-1.676,6.2,6.2,0,0,0,.167-2.348,5.939,5.939,0,0,0-.643-2.252,3.336,3.336,0,0,0-1.384-1.4,3.354,3.354,0,0,0-1.589-.365A4.9,4.9,0,0,0-9279.922,17546.379Zm-28.262,7.861.34-1.533,5.547,1.225.7-3.154-4.608-1.018.339-1.539,4.613,1.018.767-3.471-5.552-1.225.344-1.543,7.178,1.59-2.48,11.24Zm40.379-.459a5.213,5.213,0,0,1-2.529-2.066l1.489-.93a3.6,3.6,0,0,0,1.692,1.469,3.469,3.469,0,0,0,2.331.008,3.51,3.51,0,0,0,1.789-1.119,3.361,3.361,0,0,0,.727-1.832,5.993,5.993,0,0,0-.277-2.332,5.934,5.934,0,0,0-1.058-2.092,3.334,3.334,0,0,0-1.626-1.115,3.6,3.6,0,0,0-2.115.061,3.443,3.443,0,0,0-1.93,1.314,3.58,3.58,0,0,0-.595,2.154l-1.754.057a5.244,5.244,0,0,1,.952-3.123,5.24,5.24,0,0,1,2.864-1.922,5.475,5.475,0,0,1,3.035-.133,4.877,4.877,0,0,1,2.389,1.477,7.229,7.229,0,0,1,1.529,2.811,7.288,7.288,0,0,1,.295,3.188,4.9,4.9,0,0,1-1.168,2.555,5.46,5.46,0,0,1-2.595,1.572,6.163,6.163,0,0,1-1.814.291A4.551,4.551,0,0,1-9267.8,17553.781Zm-49.213-2.621c-.106-.039-.229-.1-.384-.162s-.291-.146-.418-.225a3.455,3.455,0,0,1-1.247-1.2,3.11,3.11,0,0,1-.428-1.537,4.362,4.362,0,0,1,.33-1.693,4,4,0,0,1,1.529-1.943,2.869,2.869,0,0,1,1.535-.461l-.376-4.949,1.775.705.338,4.584,2.839,1.127,1.529-3.844,1.551.617-4.252,10.7Zm.568-5.455a1.9,1.9,0,0,0-.692.529,2.755,2.755,0,0,0-.44.74,2.609,2.609,0,0,0-.185.832,1.918,1.918,0,0,0,.141.855,1.668,1.668,0,0,0,.6.719,2.07,2.07,0,0,0,.322.193c.114.057.225.105.321.145l2.714,1.08,1.561-3.922-2.715-1.078a2.893,2.893,0,0,0-.335-.115,2.337,2.337,0,0,0-.365-.084,2.044,2.044,0,0,0-.3-.023A1.51,1.51,0,0,0-9316.449,17545.705ZM-9314.316,17544.891Zm59.043,3.895a4.207,4.207,0,0,1-1.572-1.229l1.454-1.084a2.386,2.386,0,0,0,.965.762,2.691,2.691,0,0,0,1.181.2,3.169,3.169,0,0,0,1.216-.33,2.968,2.968,0,0,0,.952-.705,2.066,2.066,0,0,0,.493-.9,1.333,1.333,0,0,0-.114-.912,1.083,1.083,0,0,0-.6-.564,2.022,2.022,0,0,0-.833-.1,7.1,7.1,0,0,0-.858.119l-2.164.438c-.273.053-.586.1-.947.145a4.337,4.337,0,0,1-1.11-.021,2.638,2.638,0,0,1-1.105-.432,2.836,2.836,0,0,1-.917-1.1,3.2,3.2,0,0,1-.383-1.525,3.2,3.2,0,0,1,.356-1.418,4.423,4.423,0,0,1,.952-1.234,6.011,6.011,0,0,1,1.4-.969,5.533,5.533,0,0,1,2.186-.635,4.223,4.223,0,0,1,2.014.34,4.059,4.059,0,0,1,1.6,1.3l-1.433,1.027a2.753,2.753,0,0,0-1.727-.961,3.351,3.351,0,0,0-2.014.371,3.537,3.537,0,0,0-1.036.779,2.235,2.235,0,0,0-.551.986,1.451,1.451,0,0,0,.133,1.045,1.372,1.372,0,0,0,.348.441,1.263,1.263,0,0,0,.454.236,1.785,1.785,0,0,0,.546.072,4.733,4.733,0,0,0,.626-.062l3.022-.568a6.465,6.465,0,0,1,.935-.105,3.315,3.315,0,0,1,.979.105,2.5,2.5,0,0,1,.907.459,2.775,2.775,0,0,1,.754.955,2.95,2.95,0,0,1,.33,1.855,3.328,3.328,0,0,1-.811,1.67,5.478,5.478,0,0,1-1.692,1.291,5.523,5.523,0,0,1-2.049.586c-.089.006-.177.008-.265.008A4.038,4.038,0,0,1-9255.273,17548.785Zm-75.522-4.816,4.173-5.852a3.18,3.18,0,0,0,.551-1.2,2.734,2.734,0,0,0,0-1.146,2.89,2.89,0,0,0-.428-1,2.994,2.994,0,0,0-.744-.768,2.91,2.91,0,0,0-.979-.453,2.833,2.833,0,0,0-1.088-.076,2.688,2.688,0,0,0-1.08.375,3.255,3.255,0,0,0-.947.908l-4.173,5.852-1.379-.986,4.226-5.918a4.553,4.553,0,0,1,1.842-1.582,4.071,4.071,0,0,1,2.226-.336,4.969,4.969,0,0,1,2.265.936,4.983,4.983,0,0,1,1.621,1.836,4.055,4.055,0,0,1,.414,2.213,4.636,4.636,0,0,1-.9,2.26l-4.221,5.918Zm80.572-9.658,1.384-.934,6.46,9.525-1.384.939Zm9.9,3.406a7.482,7.482,0,0,1-2.138-1.705,7.48,7.48,0,0,1-1.432-2.33,4.955,4.955,0,0,1-.295-2.441,4.252,4.252,0,0,1,1.066-2.23,7.471,7.471,0,0,1,.586-.6c.216-.193.361-.33.44-.4l2.7-2.389,7.622,8.633-2.7,2.383c-.084.07-.234.2-.454.393a7.294,7.294,0,0,1-.67.5,4.184,4.184,0,0,1-2.344.781h-.053A4.975,4.975,0,0,1-9240.322,17537.717Zm-.719-8.514c-.137.119-.295.27-.476.441a5.359,5.359,0,0,0-.454.484,2.545,2.545,0,0,0-.563,1.52,3.627,3.627,0,0,0,.37,1.631,6.506,6.506,0,0,0,1.035,1.561,6.514,6.514,0,0,0,1.445,1.234,3.67,3.67,0,0,0,1.568.555,2.509,2.509,0,0,0,1.556-.375,4.305,4.305,0,0,0,.542-.393c.2-.158.361-.3.493-.418l1.419-1.252-5.517-6.244Zm-100.6,5.928a5.493,5.493,0,0,1-1.745-1.217,5.34,5.34,0,0,1-1.186-1.771,3.994,3.994,0,0,1-.273-1.895,4.292,4.292,0,0,1,.684-1.877l1.48,1.049a2.374,2.374,0,0,0-.423,1.154,2.56,2.56,0,0,0,.167,1.186,3.162,3.162,0,0,0,.684,1.053,2.936,2.936,0,0,0,.965.691,2.015,2.015,0,0,0,1.013.189,1.29,1.29,0,0,0,.833-.387,1.1,1.1,0,0,0,.353-.746,2.087,2.087,0,0,0-.158-.818,7.2,7.2,0,0,0-.379-.779l-1.08-1.932c-.132-.242-.277-.523-.427-.85a4.188,4.188,0,0,1-.322-1.066,2.624,2.624,0,0,1,.07-1.189,2.814,2.814,0,0,1,.768-1.2,3.261,3.261,0,0,1,1.33-.838,3.222,3.222,0,0,1,1.463-.1,4.36,4.36,0,0,1,1.472.529,6.113,6.113,0,0,1,1.349,1.035,5.557,5.557,0,0,1,1.277,1.881,4.189,4.189,0,0,1,.291,2.021,4.054,4.054,0,0,1-.749,1.932l-1.414-1.049a2.773,2.773,0,0,0,.383-1.939,3.36,3.36,0,0,0-.969-1.8,3.613,3.613,0,0,0-1.062-.748,2.248,2.248,0,0,0-1.11-.221,1.46,1.46,0,0,0-.947.445,1.334,1.334,0,0,0-.312.467,1.253,1.253,0,0,0-.089.506,1.774,1.774,0,0,0,.1.543,3.958,3.958,0,0,0,.255.576l1.468,2.7a6.657,6.657,0,0,1,.388.859,3.208,3.208,0,0,1,.2.957,2.445,2.445,0,0,1-.154,1.008,2.786,2.786,0,0,1-.683,1.01,2.948,2.948,0,0,1-1.661.887,3.2,3.2,0,0,1-.472.035A3.52,3.52,0,0,1-9341.64,17535.131Zm113.822-15.211a73.264,73.264,0,0,0,5.019-8.209l1.014.529a74.571,74.571,0,0,1-5.1,8.34Zm-126.129-9.8,1.026-.494a74.034,74.034,0,0,0,5.063,8.826l-.947.639A74.48,74.48,0,0,1-9353.946,17510.121Zm138.185-6.654.207-1.8a2.388,2.388,0,0,0,1.216-.18,2.621,2.621,0,0,0,.956-.723,3.054,3.054,0,0,0,.595-1.105,3.082,3.082,0,0,0,.146-1.182,2.1,2.1,0,0,0-.326-.979,1.317,1.317,0,0,0-.74-.541,1.1,1.1,0,0,0-.824.053,1.968,1.968,0,0,0-.643.533,6.167,6.167,0,0,0-.5.709l-1.172,1.873c-.146.232-.326.5-.542.789a4.294,4.294,0,0,1-.776.8,2.65,2.65,0,0,1-1.074.506,2.789,2.789,0,0,1-1.428-.092,3.176,3.176,0,0,1-1.371-.762,3.232,3.232,0,0,1-.793-1.234,4.471,4.471,0,0,1-.246-1.543,6.405,6.405,0,0,1,.255-1.678,5.656,5.656,0,0,1,1.036-2.031,4.25,4.25,0,0,1,1.63-1.23,4.037,4.037,0,0,1,2.049-.271l-.233,1.744a2.733,2.733,0,0,0-1.886.6,3.318,3.318,0,0,0-1.106,1.715,3.581,3.581,0,0,0-.149,1.291,2.324,2.324,0,0,0,.344,1.074,1.455,1.455,0,0,0,.851.621,1.275,1.275,0,0,0,.56.049,1.332,1.332,0,0,0,.484-.168,1.819,1.819,0,0,0,.428-.348,3.847,3.847,0,0,0,.383-.5l1.661-2.592a6.591,6.591,0,0,1,.564-.748,3.076,3.076,0,0,1,.74-.639,2.522,2.522,0,0,1,.96-.348,2.729,2.729,0,0,1,1.212.109,2.933,2.933,0,0,1,1.578,1.027,3.383,3.383,0,0,1,.665,1.74,5.649,5.649,0,0,1-.221,2.115,5.4,5.4,0,0,1-.982,1.889,4.014,4.014,0,0,1-1.533,1.154,4.115,4.115,0,0,1-1.628.316Q-9215.587,17503.479-9215.762,17503.467Zm-148.469-7.447c-.022-.1-.062-.3-.124-.58a6.47,6.47,0,0,1-.114-.828,4.192,4.192,0,0,1,.445-2.434,5.021,5.021,0,0,1,1.674-1.8,7.312,7.312,0,0,1,2.521-1.045,7.445,7.445,0,0,1,2.736-.133,5.023,5.023,0,0,1,2.278.922,4.192,4.192,0,0,1,1.437,2.008,6.957,6.957,0,0,1,.246.8c.066.281.115.477.137.582l.784,3.516-11.231,2.512Zm4.789-4.957a6.532,6.532,0,0,0-1.78.666,3.719,3.719,0,0,0-1.242,1.111,2.519,2.519,0,0,0-.423,1.537,5.264,5.264,0,0,0,.079.67c.049.246.093.459.132.631l.41,1.85,8.13-1.82-.41-1.846c-.04-.18-.093-.387-.158-.631a5.484,5.484,0,0,0-.207-.633,2.533,2.533,0,0,0-1.058-1.227,3.742,3.742,0,0,0-1.6-.467c-.129-.008-.26-.012-.391-.012A6.71,6.71,0,0,0-9359.441,17491.063Zm142.807-.26a4.6,4.6,0,0,1-2.278-.85,4.047,4.047,0,0,1-1.365-1.785,4.95,4.95,0,0,1-.282-2.432,4.977,4.977,0,0,1,.828-2.309A4.012,4.012,0,0,1-9218,17482a4.574,4.574,0,0,1,2.415-.309l7.218.828-.186,1.684-7.138-.824a3.211,3.211,0,0,0-1.317.1,2.788,2.788,0,0,0-1,.551,2.834,2.834,0,0,0-.67.863,3.03,3.03,0,0,0-.309,1.021,2.977,2.977,0,0,0,.07,1.076,3.019,3.019,0,0,0,.463.986,2.664,2.664,0,0,0,.854.764,3.194,3.194,0,0,0,1.252.387l7.138.824-.193,1.684Zm-149.416-6.424,11.465-1.045.15,1.666-11.461,1.045Zm7.641-5.8a2.752,2.752,0,0,0,1.679-1.053,3.352,3.352,0,0,0,.644-1.943,3.471,3.471,0,0,0-.181-1.283,2.248,2.248,0,0,0-.6-.955,1.477,1.477,0,0,0-.978-.389,1.328,1.328,0,0,0-.556.094,1.334,1.334,0,0,0-.428.281,1.86,1.86,0,0,0-.325.445,3.792,3.792,0,0,0-.247.582l-.961,2.92a6.424,6.424,0,0,1-.356.869,3.256,3.256,0,0,1-.56.8,2.469,2.469,0,0,1-.842.578,2.83,2.83,0,0,1-1.2.2,2.958,2.958,0,0,1-1.784-.605,3.377,3.377,0,0,1-1.075-1.516,5.544,5.544,0,0,1-.312-2.105,5.414,5.414,0,0,1,.479-2.076,3.97,3.97,0,0,1,1.19-1.5,4.164,4.164,0,0,1,1.837-.787l.247,1.8a2.327,2.327,0,0,0-1.128.48,2.635,2.635,0,0,0-.749.934,3.218,3.218,0,0,0-.3,1.221,3.122,3.122,0,0,0,.158,1.182,2.108,2.108,0,0,0,.556.863,1.347,1.347,0,0,0,.854.344,1.109,1.109,0,0,0,.784-.256,2.083,2.083,0,0,0,.489-.678,7.289,7.289,0,0,0,.309-.811l.665-2.111c.084-.26.189-.561.326-.895a4.222,4.222,0,0,1,.556-.965,2.659,2.659,0,0,1,.912-.762,2.8,2.8,0,0,1,1.405-.27,3.251,3.251,0,0,1,1.521.4,3.185,3.185,0,0,1,1.07,1,4.382,4.382,0,0,1,.626,1.428,6.284,6.284,0,0,1,.172,1.691,5.619,5.619,0,0,1-.494,2.221,4.2,4.2,0,0,1-1.273,1.6,4.1,4.1,0,0,1-1.916.781Zm138.348-6.363,3.856-2.5-.376-3.033-4.1.506-.207-1.656,11.425-1.414.573,4.613c.013.115.026.252.039.414a3.4,3.4,0,0,1,0,.477,3.4,3.4,0,0,1-.454,1.67,3.127,3.127,0,0,1-1.142,1.115,4.408,4.408,0,0,1-1.643.523,3.988,3.988,0,0,1-2.441-.406,2.848,2.848,0,0,1-1.142-1.125l-4.159,2.707Zm5.05-5.723.356,2.895c.018.105.035.221.062.348a2.408,2.408,0,0,0,.1.361,1.614,1.614,0,0,0,.542.768,1.911,1.911,0,0,0,.8.348,2.69,2.69,0,0,0,.854.035,2.815,2.815,0,0,0,.824-.242,1.9,1.9,0,0,0,.683-.533,1.642,1.642,0,0,0,.335-.873,1.8,1.8,0,0,0,.018-.379c0-.127-.014-.246-.026-.352l-.357-2.895Zm-145.076,1.635a7.2,7.2,0,0,1-2.935-1.27,4.887,4.887,0,0,1-1.684-2.256,5.451,5.451,0,0,1-.132-3.031,5.229,5.229,0,0,1,1.661-3.023,5.214,5.214,0,0,1,3.022-1.225l.1,1.754a3.563,3.563,0,0,0-2.1.779,3.43,3.43,0,0,0-1.128,2.041,3.553,3.553,0,0,0,.119,2.105,3.391,3.391,0,0,0,1.26,1.52,5.954,5.954,0,0,0,2.177.877,5.974,5.974,0,0,0,2.344.08,3.381,3.381,0,0,0,1.763-.891,3.607,3.607,0,0,0,.961-1.885,3.477,3.477,0,0,0-.221-2.322,3.635,3.635,0,0,0-1.608-1.561l.793-1.564a5.239,5.239,0,0,1,2.283,2.336,5.271,5.271,0,0,1,.309,3.438,5.468,5.468,0,0,1-1.345,2.723,4.866,4.866,0,0,1-2.44,1.389,6.441,6.441,0,0,1-1.5.172A8.373,8.373,0,0,1-9360.089,17468.125Zm136.541-12.457,11.051-3.221,2.063,7.059-1.512.441-1.591-5.455-3.1.9,1.321,4.539-1.511.439-1.322-4.533-3.415,1,1.591,5.455-1.512.439Zm-133.487-.824a7.148,7.148,0,0,1-2.644-1.8,4.887,4.887,0,0,1-1.229-2.523,5.47,5.47,0,0,1,.432-3.006,5.492,5.492,0,0,1,1.828-2.424,4.855,4.855,0,0,1,2.657-.9,7.21,7.21,0,0,1,3.142.617,7.154,7.154,0,0,1,2.644,1.793,4.87,4.87,0,0,1,1.234,2.525,5.491,5.491,0,0,1-.437,3,5.417,5.417,0,0,1-1.828,2.428,4.863,4.863,0,0,1-2.657.9c-.1.006-.2.01-.307.01A7.415,7.415,0,0,1-9357.035,17454.844Zm-.675-8.385a3.589,3.589,0,0,0-1.295,1.666,3.427,3.427,0,0,0-.291,2.084,3.409,3.409,0,0,0,.961,1.723,6.24,6.24,0,0,0,1.982,1.273,5.872,5.872,0,0,0,2.282.516,3.314,3.314,0,0,0,1.891-.537,3.646,3.646,0,0,0,1.3-1.67,3.453,3.453,0,0,0,.286-2.09,3.418,3.418,0,0,0-.965-1.719,6.07,6.07,0,0,0-1.979-1.268,6.01,6.01,0,0,0-2.287-.512A3.4,3.4,0,0,0-9357.71,17446.459Zm130.857,1.564,8.8-8.311.745,1.564-7.513,7.094,10.262-1.291.74,1.564-12,1.551Zm-129.9-8.055.925-1.463,10.011,2.555-6.578-7.982.93-1.463,7.729,9.314-1.286,2.031Zm126.807,1.428a5.43,5.43,0,0,1-2.3-1.975,5.432,5.432,0,0,1-1.071-2.842,4.878,4.878,0,0,1,.661-2.727,7.148,7.148,0,0,1,2.194-2.328,7.26,7.26,0,0,1,2.935-1.273,4.927,4.927,0,0,1,2.794.314,5.481,5.481,0,0,1,2.3,1.973,5.468,5.468,0,0,1,1.071,2.842,4.857,4.857,0,0,1-.661,2.729,7.243,7.243,0,0,1-2.194,2.326,7.261,7.261,0,0,1-2.935,1.273,5.254,5.254,0,0,1-.9.078A4.744,4.744,0,0,1-9229.946,17441.4Zm2.636-9.408a6.191,6.191,0,0,0-2.138.992,5.79,5.79,0,0,0-1.656,1.652,3.312,3.312,0,0,0-.556,1.885,3.553,3.553,0,0,0,.714,1.992,3.428,3.428,0,0,0,1.608,1.357,3.373,3.373,0,0,0,1.97.109,6.021,6.021,0,0,0,2.128-.994,6.011,6.011,0,0,0,1.657-1.662,3.347,3.347,0,0,0,.56-1.877,3.569,3.569,0,0,0-.71-1.986,3.461,3.461,0,0,0-1.608-1.363,3.216,3.216,0,0,0-1.132-.2A3.808,3.808,0,0,0-9227.311,17431.988Zm-121.666-3.516,4.86-5.525,1.181,1.045-3.754,4.264,2.428,2.133,3.12-3.547,1.181,1.041-3.12,3.551,2.671,2.344,3.754-4.266,1.181,1.041-4.855,5.521Zm111.689,3a5.231,5.231,0,0,1-3.062-1.582,5.463,5.463,0,0,1-1.582-2.6,4.9,4.9,0,0,1,.141-2.807,7.247,7.247,0,0,1,1.728-2.691,7.248,7.248,0,0,1,2.648-1.793,4.945,4.945,0,0,1,2.8-.213,5.48,5.48,0,0,1,2.631,1.516,5.241,5.241,0,0,1,1.661,3.023,5.187,5.187,0,0,1-.591,3.207l-1.533-.854a3.539,3.539,0,0,0,.467-2.2,3.409,3.409,0,0,0-1.114-2.043,3.536,3.536,0,0,0-1.842-1.027,3.347,3.347,0,0,0-1.957.246,6,6,0,0,0-1.907,1.367,5.925,5.925,0,0,0-1.322,1.934,3.358,3.358,0,0,0-.2,1.965,3.543,3.543,0,0,0,1.08,1.82,3.441,3.441,0,0,0,2.075,1.063,3.608,3.608,0,0,0,2.177-.521l.895,1.512a5.322,5.322,0,0,1-2.6.705A5.053,5.053,0,0,1-9237.287,17431.469Zm-103.472-11.8,3.582-2.961c.089-.07.2-.158.331-.256a4.441,4.441,0,0,1,.4-.26,3.446,3.446,0,0,1,1.652-.52,3.078,3.078,0,0,1,1.551.371,4.236,4.236,0,0,1,1.326,1.1,3.993,3.993,0,0,1,.97,2.277,2.86,2.86,0,0,1-.333,1.566l4.519,2.051-1.472,1.217-4.181-1.91-2.354,1.949,2.631,3.186-1.287,1.066Zm5.151-2.105a1.8,1.8,0,0,0-.326.186,3.377,3.377,0,0,0-.287.215l-2.247,1.855,2.688,3.256,2.247-1.859c.084-.07.172-.15.265-.238a2.379,2.379,0,0,0,.251-.281,1.631,1.631,0,0,0,.353-.863,1.925,1.925,0,0,0-.133-.863,2.87,2.87,0,0,0-.432-.74,2.692,2.692,0,0,0-.644-.561,1.9,1.9,0,0,0-.819-.291,1.54,1.54,0,0,0-.164-.01A1.641,1.641,0,0,0-9335.607,17417.559Zm87.688,5.641a6.4,6.4,0,0,1-1.521-.768,5.579,5.579,0,0,1-1.6-1.607,4.181,4.181,0,0,1-.67-1.936,4.1,4.1,0,0,1,.375-2.031l1.59.762a2.739,2.739,0,0,0-.013,1.979,3.319,3.319,0,0,0,1.286,1.588,3.572,3.572,0,0,0,1.182.537,2.291,2.291,0,0,0,1.132.008,1.445,1.445,0,0,0,.851-.617,1.279,1.279,0,0,0,.221-.52,1.261,1.261,0,0,0-.009-.51,1.87,1.87,0,0,0-.2-.516,4.544,4.544,0,0,0-.357-.516l-1.952-2.385a6,6,0,0,1-.537-.766,3.2,3.2,0,0,1-.379-.9,2.548,2.548,0,0,1-.035-1.021,2.775,2.775,0,0,1,.48-1.119,2.985,2.985,0,0,1,1.467-1.182,3.342,3.342,0,0,1,1.855-.088,5.468,5.468,0,0,1,1.947.859,5.529,5.529,0,0,1,1.493,1.52,4.049,4.049,0,0,1,.626,1.816,4.255,4.255,0,0,1-.326,1.969l-1.647-.758a2.368,2.368,0,0,0,.2-1.207,2.634,2.634,0,0,0-.388-1.137,3.115,3.115,0,0,0-.872-.908,2.986,2.986,0,0,0-1.075-.5,2.046,2.046,0,0,0-1.026.006,1.318,1.318,0,0,0-.749.537,1.068,1.068,0,0,0-.2.8,1.91,1.91,0,0,0,.309.775,6.44,6.44,0,0,0,.516.7l1.423,1.691c.177.211.37.467.577.758a4.192,4.192,0,0,1,.521.986,2.694,2.694,0,0,1,.149,1.182,2.791,2.791,0,0,1-.528,1.326,3.169,3.169,0,0,1-1.15,1.066,3.238,3.238,0,0,1-1.419.375h-.107A4.528,4.528,0,0,1-9247.919,17423.2Zm-9.4-5.676,5.257-10.24,1.484.762-5.257,10.24Zm-61.617.418a4.031,4.031,0,0,1-2.133-.7,4.619,4.619,0,0,1-1.555-1.873l-3.164-6.543,1.524-.746,3.124,6.469a3.262,3.262,0,0,0,.789,1.063,2.822,2.822,0,0,0,1,.551,2.836,2.836,0,0,0,1.084.105,3.028,3.028,0,0,0,1.031-.281,3.014,3.014,0,0,0,.868-.639,2.959,2.959,0,0,0,.591-.922,2.74,2.74,0,0,0,.189-1.127,3.232,3.232,0,0,0-.344-1.266l-3.124-6.473,1.524-.736,3.164,6.553a4.618,4.618,0,0,1,.5,2.375,4.054,4.054,0,0,1-.775,2.111,5.009,5.009,0,0,1-1.908,1.537,5.035,5.035,0,0,1-2.2.541C-9318.807,17417.945-9318.87,17417.945-9318.935,17417.941Zm55.029-3.34a6.429,6.429,0,0,1-.806-.221c-.278-.092-.463-.158-.564-.193l-3.393-1.221,3.891-10.83,3.393,1.217c.1.035.287.105.56.211a6.511,6.511,0,0,1,.763.34,4.175,4.175,0,0,1,1.815,1.678,5.015,5.015,0,0,1,.626,2.379,7.4,7.4,0,0,1-.463,2.693,7.5,7.5,0,0,1-1.357,2.379,5,5,0,0,1-2,1.432,3.926,3.926,0,0,1-1.415.258A4.742,4.742,0,0,1-9263.905,17414.6Zm-2.612-2.551,1.78.639c.172.063.374.127.616.2a4.921,4.921,0,0,0,.644.162,2.522,2.522,0,0,0,1.6-.232,3.676,3.676,0,0,0,1.252-1.111,6.63,6.63,0,0,0,.868-1.656,6.524,6.524,0,0,0,.388-1.859,3.714,3.714,0,0,0-.273-1.648,2.477,2.477,0,0,0-1.075-1.176,3.967,3.967,0,0,0-.6-.291c-.238-.092-.437-.172-.6-.229l-1.785-.645Zm-41.64,1.5a4.209,4.209,0,0,1-1.912-.723,4.031,4.031,0,0,1-1.326-1.582l1.6-.74a2.767,2.767,0,0,0,1.516,1.273,3.332,3.332,0,0,0,2.045.018,3.525,3.525,0,0,0,1.167-.564,2.254,2.254,0,0,0,.728-.867,1.476,1.476,0,0,0,.065-1.049,1.292,1.292,0,0,0-.255-.5,1.3,1.3,0,0,0-.4-.322,1.87,1.87,0,0,0-.524-.172,3.558,3.558,0,0,0-.625-.057l-3.076-.018a6.576,6.576,0,0,1-.938-.074,3.137,3.137,0,0,1-.938-.287,2.64,2.64,0,0,1-.807-.621,2.861,2.861,0,0,1-.555-1.084,2.93,2.93,0,0,1,.026-1.887,3.392,3.392,0,0,1,1.114-1.484,5.532,5.532,0,0,1,1.908-.947,5.285,5.285,0,0,1,2.124-.18,3.947,3.947,0,0,1,1.789.674,4.181,4.181,0,0,1,1.313,1.506l-1.635.789a2.329,2.329,0,0,0-.8-.93,2.613,2.613,0,0,0-1.119-.428,3.14,3.14,0,0,0-1.256.094,3.048,3.048,0,0,0-1.07.51,2.054,2.054,0,0,0-.652.8,1.318,1.318,0,0,0-.066.916,1.091,1.091,0,0,0,.485.666,1.874,1.874,0,0,0,.793.254,6.589,6.589,0,0,0,.868.049l2.207-.018c.278,0,.595.014.956.039a4.216,4.216,0,0,1,1.089.23,2.619,2.619,0,0,1,1,.639,2.759,2.759,0,0,1,.687,1.252,3.215,3.215,0,0,1,.089,1.568,3.23,3.23,0,0,1-.617,1.33,4.438,4.438,0,0,1-1.172,1.031,6.406,6.406,0,0,1-1.56.684,6.018,6.018,0,0,1-1.658.248A5.215,5.215,0,0,1-9308.157,17413.549Zm16.233-8.254-.071-1.141a74.861,74.861,0,0,1,10.672.1l-.092,1.137A74.893,74.893,0,0,0-9291.924,17405.295Z" transform="translate(9366.5 -17401.645)" fill="#fff" stroke="rgba(0,0,0,0)" stroke-miterlimit="10" stroke-width="1"/>
        </g>
      </g>
    </g>
  </g>
</svg>
